<svg width="32" height="32" viewBox="0 0 32 32" fill="none" xmlns="http://www.w3.org/2000/svg">
<path fill-rule="evenodd" clip-rule="evenodd" d="M32 16C32 7.16344 24.8366 0 16 0C7.16344 0 0 7.16345 0 16C0 24.8366 7.16345 32 16 32C24.8366 32 32 24.8366 32 16ZM16.0005 7.93452C20.35 7.93452 23.876 11.4045 23.876 15.685C23.876 17.1506 23.4627 18.5212 22.7445 19.69L23.875 25.3412L18.2148 23.1269L18.2181 23.1241C17.5147 23.3268 16.7705 23.4355 16.0005 23.4355C11.651 23.4355 8.125 19.9655 8.125 15.685C8.125 11.4045 11.651 7.93452 16.0005 7.93452Z" fill="white"/>
</svg>
